<svg xmlns="http://www.w3.org/2000/svg" width="14" height="19" viewBox="0 0 14 19">
  <defs>
    <linearGradient id="btn-up-a" x1="50%" x2="50%" y1="0%" y2="100%">
      <stop offset="0%"/>
      <stop offset="100%" stop-color="#D8D8D8"/>
    </linearGradient>
  </defs>
  <path fill="url(#btn-up-a)" fill-rule="evenodd" d="M7,0 C7.55228475,-1.01453063e-16 8,0.44771525 8,1 L8,12.671875 C8,13.2241597 7.55228475,13.671875 7,13.671875 C6.44771525,13.671875 6,13.2241597 6,12.671875 L6,1 C6,0.44771525 6.44771525,1.01453063e-16 7,0 Z M13.8359213,13.0488071 L13.8358822,13.5455174 C13.8358822,13.8227645 13.7207769,14.0875676 13.5180524,14.2766939 C10.4107525,17.1755646 8.23806562,18.625 6.99999189,18.625 C5.76191776,18.625 3.58922993,17.1755637 0.481928393,14.2766911 L0.481912216,14.2767085 C0.279175053,14.0875703 0.1640625,13.8227506 0.1640625,13.5454861 L0.1640625,13.0488071 C0.1640625,12.8274749 0.34348769,12.6480497 0.56481988,12.6480497 C0.666020113,12.6480497 0.763473377,12.6863367 0.837610102,12.7552224 C3.71543082,15.4292633 5.76956992,16.766269 7,16.766269 C8.2304299,16.766269 10.2845639,15.4292637 13.162402,12.755253 L13.1623744,12.7552234 C13.3245163,12.6045655 13.5780905,12.6138751 13.7287484,12.7760169 C13.7976342,12.8501535 13.8359213,12.9476068 13.8359213,13.0488071 Z" transform="matrix(1 0 0 -1 0 18.555)"/>
</svg>
