<?xml version="1.0" encoding="utf-8"?>
<!-- Generator: Adobe Illustrator 22.0.1, SVG Export Plug-In . SVG Version: 6.00 Build 0)  -->
<svg version="1.1" id="레이어_1" xmlns="http://www.w3.org/2000/svg" xmlns:xlink="http://www.w3.org/1999/xlink" x="0px"
	 y="0px" viewBox="0 0 80 78" style="enable-background:new 0 0 80 78;" xml:space="preserve">
<style type="text/css">
	.st0{fill:#FFFFFF;}
	.st1{fill:#3B3A3A;}
</style>
<ellipse class="st0" cx="40" cy="39" rx="40" ry="39"/>
<path class="st1" d="M60.7,56.4C51.5,32.5,44.8,21,40,21c-4.8,0-11.5,11.6-20.6,35.4l-0.2,0.5l0.9,0.4l0.2-0.5c0-0.1,0-0.1,0.1-0.2
	h0C31.3,31.2,37.1,25.9,40,25.9c2.9,0,8.7,5.3,19.6,30.7h0c0,0.1,0,0.1,0.1,0.2l0.2,0.5l0.9-0.4L60.7,56.4z"/>
<path class="st1" d="M60.6,56.3C51.5,35.2,44.8,24.9,40,24.9c-4.8,0-11.5,10.3-20.6,31.5l-0.2,0.5l0.9,0.4l0.2-0.5
	c0-0.1,0.1-0.1,0.1-0.2h-0.5C28.8,35.8,35.5,25.4,40,25.4s11.2,10.4,20.2,31.2h-0.5c0,0.1,0.1,0.1,0.1,0.2l0.2,0.5l0.9-0.4
	L60.6,56.3z"/>
<path class="st1" d="M40,25.4c-4.5,0-11.2,10.4-20.2,31.2h0.5C31.3,31.2,37.1,25.9,40,25.9c2.9,0,8.7,5.3,19.6,30.7h0.5
	C51.2,35.8,44.5,25.4,40,25.4z"/>
<path class="st1" d="M40,44.8c2.2,0,4.2-1.3,6.1-3.9c-1.8,0-3.8,0-6.1,0c-2.2,0-4.2,0-6.1,0C35.8,43.5,37.8,44.8,40,44.8z"/>
</svg>
