<svg xmlns="http://www.w3.org/2000/svg" width="80" height="78" viewBox="0 0 80 78">
  <g fill="none" fill-rule="evenodd">
    <ellipse cx="40" cy="39" fill="#FFF" rx="40" ry="39"/>
    <g transform="translate(19.817 21.468)">
      <path fill="#3B3A3A" stroke="#3B3A3A" stroke-linecap="square" d="M0,35.0642202 C8.945407,11.6880734 15.6732357,0 20.1834862,0 C24.6937367,0 31.4215655,11.6880734 40.3669725,35.0642202"/>
      <path fill="#FFF" stroke="#3B3A3A" stroke-linecap="square" d="M0,35.0642202 C8.945407,14.285423 15.6732357,3.89602446 20.1834862,3.89602446 C24.6937367,3.89602446 31.4215655,14.285423 40.3669725,35.0642202"/>
      <path fill="#3B3A3A" d="M20.1834862,23.3761468 C22.4128926,23.3761468 24.4312412,22.077472 26.2385321,19.4801223 C24.4312412,19.4801223 22.4128926,19.4801223 20.1834862,19.4801223 C17.9540799,19.4801223 15.9357313,19.4801223 14.1284404,19.4801223 C15.9357313,22.077472 17.9540799,23.3761468 20.1834862,23.3761468 Z"/>
    </g>
  </g>
</svg>
